<svg width="487" height="450" viewBox="0 0 487 450" fill="none" xmlns="http://www.w3.org/2000/svg">
<path d="M206.09 245.52C206.029 271.004 213.016 296.009 226.28 317.77C253.706 297.047 272.462 266.88 278.914 233.116C285.365 199.352 279.053 164.395 261.2 135.02C244.01 147.843 230.069 164.521 220.497 183.713C210.926 202.904 205.991 224.074 206.09 245.52Z" stroke="#B71375" stroke-width="30" stroke-miterlimit="10"/>
<path d="M128.8 69.6104C64.5 78.8104 15 135.61 15 204.31C15 279.42 74.17 340.31 147.17 340.31" stroke="#8B1874" stroke-width="30" stroke-miterlimit="10"/>
<path d="M247.59 111C204.42 44.92 128.42 21 128.42 21L128.8 69.61C60.8 79.19 15.14 135.31 15 200.27" stroke="#8B1874" stroke-width="30" stroke-miterlimit="10"/>
<path d="M32.48 271.95C63.59 328.95 132.05 355.48 196.41 331.45" stroke="#8B1874" stroke-width="30" stroke-miterlimit="10"/>
<path d="M355.21 383.51C419.51 374.32 471.5 317.51 471.5 248.81C471.5 173.7 412.33 112.81 339.34 112.81" stroke="#FC4F00" stroke-width="30" stroke-miterlimit="10"/>
<path d="M238.92 342.12C282.08 408.2 355.21 429.95 355.21 429.95L355.81 383.34C423.81 373.76 471.36 317.81 471.5 252.86" stroke="#FC4F00" stroke-width="30" stroke-miterlimit="10"/>
<path d="M454.02 181.17C422.91 124.15 354.42 97.6698 290.1 121.67" stroke="#FC4F00" stroke-width="30" stroke-miterlimit="10"/>
</svg>
