<svg width="35" height="35" viewBox="0 0 482 444" fill="none" xmlns="http://www.w3.org/2000/svg">
<path d="M204.09 242.52C204.029 268.004 211.016 293.009 224.28 314.77C251.706 294.047 270.462 263.88 276.914 230.116C283.365 196.352 277.053 161.395 259.2 132.02C242.01 144.843 228.069 161.521 218.497 180.713C208.926 199.904 203.991 221.074 204.09 242.52Z" stroke="#B71375" stroke-width="25" stroke-miterlimit="10"/>
<path d="M126.8 66.6104C62.5 75.8104 13 132.61 13 201.31C13 276.42 72.17 337.31 145.17 337.31" stroke="#8B1874" stroke-width="25" stroke-miterlimit="10"/>
<path d="M245.59 108C202.42 41.92 126.42 18 126.42 18L126.8 66.61C58.8 76.19 13.14 132.31 13 197.27" stroke="#8B1874" stroke-width="25" stroke-miterlimit="10"/>
<path d="M30.48 268.95C61.59 325.95 130.05 352.48 194.41 328.45" stroke="#8B1874" stroke-width="25" stroke-miterlimit="10"/>
<path d="M353.21 380.51C417.51 371.32 469.5 314.51 469.5 245.81C469.5 170.7 410.33 109.81 337.34 109.81" stroke="#FC4F00" stroke-width="25" stroke-miterlimit="10"/>
<path d="M236.92 339.12C280.08 405.2 353.21 426.95 353.21 426.95L353.81 380.34C421.81 370.76 469.36 314.81 469.5 249.86" stroke="#FC4F00" stroke-width="25" stroke-miterlimit="10"/>
<path d="M452.02 178.17C420.91 121.15 352.42 94.6698 288.1 118.67" stroke="#FC4F00" stroke-width="25" stroke-miterlimit="10"/>
</svg>
