<svg width="477" height="437" viewBox="0 0 477 437" fill="none" xmlns="http://www.w3.org/2000/svg">
<path d="M201.09 238.52C201.029 264.004 208.016 289.009 221.28 310.77C248.706 290.047 267.462 259.88 273.914 226.116C280.365 192.352 274.053 157.395 256.2 128.02C239.01 140.843 225.069 157.521 215.497 176.713C205.926 195.904 200.991 217.074 201.09 238.52Z" stroke="#B71375" stroke-width="20" stroke-miterlimit="10"/>
<path d="M123.8 62.6104C59.5 71.8104 10 128.61 10 197.31C10 272.42 69.17 333.31 142.17 333.31" stroke="#8B1874" stroke-width="20" stroke-miterlimit="10"/>
<path d="M242.59 104C199.42 37.92 123.42 14 123.42 14L123.8 62.61C55.8 72.19 10.14 128.31 10 193.27" stroke="#8B1874" stroke-width="20" stroke-miterlimit="10"/>
<path d="M27.48 264.95C58.59 321.95 127.05 348.48 191.41 324.45" stroke="#8B1874" stroke-width="20" stroke-miterlimit="10"/>
<path d="M350.21 376.51C414.51 367.32 466.5 310.51 466.5 241.81C466.5 166.7 407.33 105.81 334.34 105.81" stroke="#FC4F00" stroke-width="20" stroke-miterlimit="10"/>
<path d="M233.92 335.12C277.08 401.2 350.21 422.95 350.21 422.95L350.81 376.34C418.81 366.76 466.36 310.81 466.5 245.86" stroke="#FC4F00" stroke-width="20" stroke-miterlimit="10"/>
<path d="M449.02 174.17C417.91 117.15 349.42 90.6698 285.1 114.67" stroke="#FC4F00" stroke-width="20" stroke-miterlimit="10"/>
</svg>
